<?xml version="1.0" encoding="UTF-8" standalone="no"?>
<!DOCTYPE svg PUBLIC "-//W3C//DTD SVG 1.1//EN"
 "http://www.w3.org/Graphics/SVG/1.1/DTD/svg11.dtd">
<!-- Generated by graphviz version 2.38.0 (20140413.2041)
 -->
<!-- Title: %3 Pages: 1 -->
<svg width="814pt" height="548pt"
 viewBox="0.00 0.00 813.50 548.00" xmlns="http://www.w3.org/2000/svg" xmlns:xlink="http://www.w3.org/1999/xlink">
<g id="graph0" class="graph" transform="scale(1 1) rotate(0) translate(4 544)">
<title>%3</title>
<polygon fill="white" stroke="none" points="-4,4 -4,-544 809.5,-544 809.5,4 -4,4"/>
<!-- [root] azurerm_network_interface.example_rg (expand) -->
<g id="node1" class="node"><title>[root] azurerm_network_interface.example_rg (expand)</title>
<polygon fill="none" stroke="black" points="709,-324 406,-324 406,-288 709,-288 709,-324"/>
<text text-anchor="middle" x="557.5" y="-302.3" font-family="Times,serif" font-size="14.00">azurerm_network_interface.example_rg</text>
</g>
<!-- [root] azurerm_public_ip.examplepublicip (expand) -->
<g id="node3" class="node"><title>[root] azurerm_public_ip.examplepublicip (expand)</title>
<polygon fill="none" stroke="black" points="805.5,-180 533.5,-180 533.5,-144 805.5,-144 805.5,-180"/>
<text text-anchor="middle" x="669.5" y="-158.3" font-family="Times,serif" font-size="14.00">azurerm_public_ip.examplepublicip</text>
</g>
<!-- [root] azurerm_network_interface.example_rg (expand)&#45;&gt;[root] azurerm_public_ip.examplepublicip (expand) -->
<g id="edge1" class="edge"><title>[root] azurerm_network_interface.example_rg (expand)&#45;&gt;[root] azurerm_public_ip.examplepublicip (expand)</title>
<path fill="none" stroke="black" d="M614.091,-287.965C631.706,-279.87 649.402,-268.286 660.5,-252 672.766,-234 674.293,-209.009 673.167,-190.091"/>
<polygon fill="black" stroke="black" points="676.644,-189.678 672.289,-180.02 669.671,-190.287 676.644,-189.678"/>
</g>
<!-- [root] azurerm_subnet.internal (expand) -->
<g id="node6" class="node"><title>[root] azurerm_subnet.internal (expand)</title>
<polygon fill="none" stroke="black" points="651.5,-252 457.5,-252 457.5,-216 651.5,-216 651.5,-252"/>
<text text-anchor="middle" x="554.5" y="-230.3" font-family="Times,serif" font-size="14.00">azurerm_subnet.internal</text>
</g>
<!-- [root] azurerm_network_interface.example_rg (expand)&#45;&gt;[root] azurerm_subnet.internal (expand) -->
<g id="edge2" class="edge"><title>[root] azurerm_network_interface.example_rg (expand)&#45;&gt;[root] azurerm_subnet.internal (expand)</title>
<path fill="none" stroke="black" d="M556.758,-287.697C556.428,-279.983 556.031,-270.712 555.662,-262.112"/>
<polygon fill="black" stroke="black" points="559.158,-261.945 555.233,-252.104 552.165,-262.245 559.158,-261.945"/>
</g>
<!-- [root] azurerm_network_security_group.examplensg (expand) -->
<g id="node2" class="node"><title>[root] azurerm_network_security_group.examplensg (expand)</title>
<polygon fill="none" stroke="black" points="349,-324 0,-324 0,-288 349,-288 349,-324"/>
<text text-anchor="middle" x="174.5" y="-302.3" font-family="Times,serif" font-size="14.00">azurerm_network_security_group.examplensg</text>
</g>
<!-- [root] azurerm_resource_group.example_rg (expand) -->
<g id="node4" class="node"><title>[root] azurerm_resource_group.example_rg (expand)</title>
<polygon fill="none" stroke="black" points="512.5,-108 228.5,-108 228.5,-72 512.5,-72 512.5,-108"/>
<text text-anchor="middle" x="370.5" y="-86.3" font-family="Times,serif" font-size="14.00">azurerm_resource_group.example_rg</text>
</g>
<!-- [root] azurerm_network_security_group.examplensg (expand)&#45;&gt;[root] azurerm_resource_group.example_rg (expand) -->
<g id="edge3" class="edge"><title>[root] azurerm_network_security_group.examplensg (expand)&#45;&gt;[root] azurerm_resource_group.example_rg (expand)</title>
<path fill="none" stroke="black" d="M174.249,-287.975C174.708,-255.629 180.337,-184.88 218.5,-144 231.736,-129.822 248.966,-119.436 267.053,-111.828"/>
<polygon fill="black" stroke="black" points="268.539,-115.005 276.573,-108.097 265.985,-108.487 268.539,-115.005"/>
</g>
<!-- [root] azurerm_public_ip.examplepublicip (expand)&#45;&gt;[root] azurerm_resource_group.example_rg (expand) -->
<g id="edge4" class="edge"><title>[root] azurerm_public_ip.examplepublicip (expand)&#45;&gt;[root] azurerm_resource_group.example_rg (expand)</title>
<path fill="none" stroke="black" d="M596.739,-143.966C553.337,-133.805 498.097,-120.872 453.067,-110.33"/>
<polygon fill="black" stroke="black" points="453.863,-106.922 443.328,-108.05 452.267,-113.737 453.863,-106.922"/>
</g>
<!-- [root] provider[&quot;registry.terraform.io/hashicorp/azurerm&quot;] -->
<g id="node9" class="node"><title>[root] provider[&quot;registry.terraform.io/hashicorp/azurerm&quot;]</title>
<polygon fill="none" stroke="black" points="370.5,-36 14.5722,-18 370.5,-3.55271e-15 726.428,-18 370.5,-36"/>
<text text-anchor="middle" x="370.5" y="-14.3" font-family="Times,serif" font-size="14.00">provider[&quot;registry.terraform.io/hashicorp/azurerm&quot;]</text>
</g>
<!-- [root] azurerm_resource_group.example_rg (expand)&#45;&gt;[root] provider[&quot;registry.terraform.io/hashicorp/azurerm&quot;] -->
<g id="edge5" class="edge"><title>[root] azurerm_resource_group.example_rg (expand)&#45;&gt;[root] provider[&quot;registry.terraform.io/hashicorp/azurerm&quot;]</title>
<path fill="none" stroke="black" d="M370.5,-71.6966C370.5,-63.9827 370.5,-54.7125 370.5,-46.1124"/>
<polygon fill="black" stroke="black" points="374,-46.1043 370.5,-36.1043 367,-46.1044 374,-46.1043"/>
</g>
<!-- [root] azurerm_subnet.external (expand) -->
<g id="node5" class="node"><title>[root] azurerm_subnet.external (expand)</title>
<polygon fill="none" stroke="black" points="439,-252 242,-252 242,-216 439,-216 439,-252"/>
<text text-anchor="middle" x="340.5" y="-230.3" font-family="Times,serif" font-size="14.00">azurerm_subnet.external</text>
</g>
<!-- [root] azurerm_virtual_network.example_rg (expand) -->
<g id="node8" class="node"><title>[root] azurerm_virtual_network.example_rg (expand)</title>
<polygon fill="none" stroke="black" points="513.5,-180 227.5,-180 227.5,-144 513.5,-144 513.5,-180"/>
<text text-anchor="middle" x="370.5" y="-158.3" font-family="Times,serif" font-size="14.00">azurerm_virtual_network.example_rg</text>
</g>
<!-- [root] azurerm_subnet.external (expand)&#45;&gt;[root] azurerm_virtual_network.example_rg (expand) -->
<g id="edge6" class="edge"><title>[root] azurerm_subnet.external (expand)&#45;&gt;[root] azurerm_virtual_network.example_rg (expand)</title>
<path fill="none" stroke="black" d="M347.916,-215.697C351.294,-207.813 355.37,-198.304 359.123,-189.546"/>
<polygon fill="black" stroke="black" points="362.447,-190.675 363.17,-180.104 356.013,-187.917 362.447,-190.675"/>
</g>
<!-- [root] azurerm_subnet.internal (expand)&#45;&gt;[root] azurerm_virtual_network.example_rg (expand) -->
<g id="edge7" class="edge"><title>[root] azurerm_subnet.internal (expand)&#45;&gt;[root] azurerm_virtual_network.example_rg (expand)</title>
<path fill="none" stroke="black" d="M509.489,-215.876C483.999,-206.179 451.932,-193.98 425.024,-183.743"/>
<polygon fill="black" stroke="black" points="425.956,-180.353 415.365,-180.068 423.467,-186.895 425.956,-180.353"/>
</g>
<!-- [root] azurerm_virtual_machine.example_rg (expand) -->
<g id="node7" class="node"><title>[root] azurerm_virtual_machine.example_rg (expand)</title>
<polygon fill="none" stroke="black" points="697,-396 410,-396 410,-360 697,-360 697,-396"/>
<text text-anchor="middle" x="553.5" y="-374.3" font-family="Times,serif" font-size="14.00">azurerm_virtual_machine.example_rg</text>
</g>
<!-- [root] azurerm_virtual_machine.example_rg (expand)&#45;&gt;[root] azurerm_network_interface.example_rg (expand) -->
<g id="edge8" class="edge"><title>[root] azurerm_virtual_machine.example_rg (expand)&#45;&gt;[root] azurerm_network_interface.example_rg (expand)</title>
<path fill="none" stroke="black" d="M554.489,-359.697C554.93,-351.983 555.459,-342.712 555.951,-334.112"/>
<polygon fill="black" stroke="black" points="559.446,-334.288 556.523,-324.104 552.458,-333.888 559.446,-334.288"/>
</g>
<!-- [root] azurerm_virtual_network.example_rg (expand)&#45;&gt;[root] azurerm_resource_group.example_rg (expand) -->
<g id="edge9" class="edge"><title>[root] azurerm_virtual_network.example_rg (expand)&#45;&gt;[root] azurerm_resource_group.example_rg (expand)</title>
<path fill="none" stroke="black" d="M370.5,-143.697C370.5,-135.983 370.5,-126.712 370.5,-118.112"/>
<polygon fill="black" stroke="black" points="374,-118.104 370.5,-108.104 367,-118.104 374,-118.104"/>
</g>
<!-- [root] provider[&quot;registry.terraform.io/hashicorp/azurerm&quot;] (close) -->
<g id="node10" class="node"><title>[root] provider[&quot;registry.terraform.io/hashicorp/azurerm&quot;] (close)</title>
<ellipse fill="none" stroke="black" cx="377.5" cy="-450" rx="313.844" ry="18"/>
<text text-anchor="middle" x="377.5" y="-446.3" font-family="Times,serif" font-size="14.00">[root] provider[&quot;registry.terraform.io/hashicorp/azurerm&quot;] (close)</text>
</g>
<!-- [root] provider[&quot;registry.terraform.io/hashicorp/azurerm&quot;] (close)&#45;&gt;[root] azurerm_network_security_group.examplensg (expand) -->
<g id="edge10" class="edge"><title>[root] provider[&quot;registry.terraform.io/hashicorp/azurerm&quot;] (close)&#45;&gt;[root] azurerm_network_security_group.examplensg (expand)</title>
<path fill="none" stroke="black" d="M353.013,-431.871C316.587,-406.391 248.057,-358.454 207.322,-329.959"/>
<polygon fill="black" stroke="black" points="209.274,-327.053 199.073,-324.189 205.261,-332.789 209.274,-327.053"/>
</g>
<!-- [root] provider[&quot;registry.terraform.io/hashicorp/azurerm&quot;] (close)&#45;&gt;[root] azurerm_subnet.external (expand) -->
<g id="edge11" class="edge"><title>[root] provider[&quot;registry.terraform.io/hashicorp/azurerm&quot;] (close)&#45;&gt;[root] azurerm_subnet.external (expand)</title>
<path fill="none" stroke="black" d="M376.429,-431.902C374.342,-402.3 368.9,-339.711 357.5,-288 355.607,-279.413 352.912,-270.234 350.224,-261.968"/>
<polygon fill="black" stroke="black" points="353.521,-260.793 347.003,-252.441 346.89,-263.035 353.521,-260.793"/>
</g>
<!-- [root] provider[&quot;registry.terraform.io/hashicorp/azurerm&quot;] (close)&#45;&gt;[root] azurerm_virtual_machine.example_rg (expand) -->
<g id="edge12" class="edge"><title>[root] provider[&quot;registry.terraform.io/hashicorp/azurerm&quot;] (close)&#45;&gt;[root] azurerm_virtual_machine.example_rg (expand)</title>
<path fill="none" stroke="black" d="M420.105,-432.055C444.568,-422.325 475.478,-410.032 501.382,-399.729"/>
<polygon fill="black" stroke="black" points="502.679,-402.98 510.678,-396.032 500.092,-396.475 502.679,-402.98"/>
</g>
<!-- [root] root -->
<g id="node11" class="node"><title>[root] root</title>
<ellipse fill="none" stroke="black" cx="377.5" cy="-522" rx="58.4896" ry="18"/>
<text text-anchor="middle" x="377.5" y="-518.3" font-family="Times,serif" font-size="14.00">[root] root</text>
</g>
<!-- [root] root&#45;&gt;[root] provider[&quot;registry.terraform.io/hashicorp/azurerm&quot;] (close) -->
<g id="edge13" class="edge"><title>[root] root&#45;&gt;[root] provider[&quot;registry.terraform.io/hashicorp/azurerm&quot;] (close)</title>
<path fill="none" stroke="black" d="M377.5,-503.697C377.5,-495.983 377.5,-486.712 377.5,-478.112"/>
<polygon fill="black" stroke="black" points="381,-478.104 377.5,-468.104 374,-478.104 381,-478.104"/>
</g>
</g>
</svg>
