<?xml version="1.0" encoding="UTF-8" standalone="no"?>
<!DOCTYPE svg PUBLIC "-//W3C//DTD SVG 1.1//EN"
 "http://www.w3.org/Graphics/SVG/1.1/DTD/svg11.dtd">
<!-- Generated by graphviz version 2.38.0 (20140413.2041)
 -->
<!-- Title: %3 Pages: 1 -->
<svg width="1439pt" height="260pt"
 viewBox="0.00 0.00 1439.01 260.00" xmlns="http://www.w3.org/2000/svg" xmlns:xlink="http://www.w3.org/1999/xlink">
<g id="graph0" class="graph" transform="scale(1 1) rotate(0) translate(4 256)">
<title>%3</title>
<polygon fill="white" stroke="none" points="-4,4 -4,-256 1435.01,-256 1435.01,4 -4,4"/>
<!-- [root] aws_instance.web (expand) -->
<g id="node1" class="node"><title>[root] aws_instance.web (expand)</title>
<polygon fill="none" stroke="black" points="399.301,-108 253.301,-108 253.301,-72 399.301,-72 399.301,-108"/>
<text text-anchor="middle" x="326.301" y="-86.3" font-family="Times,serif" font-size="14.00">aws_instance.web</text>
</g>
<!-- [root] provider[&quot;registry.terraform.io/hashicorp/aws&quot;] -->
<g id="node4" class="node"><title>[root] provider[&quot;registry.terraform.io/hashicorp/aws&quot;]</title>
<polygon fill="none" stroke="black" points="326.301,-36 0.199052,-18 326.301,-3.55271e-15 652.403,-18 326.301,-36"/>
<text text-anchor="middle" x="326.301" y="-14.3" font-family="Times,serif" font-size="14.00">provider[&quot;registry.terraform.io/hashicorp/aws&quot;]</text>
</g>
<!-- [root] aws_instance.web (expand)&#45;&gt;[root] provider[&quot;registry.terraform.io/hashicorp/aws&quot;] -->
<g id="edge1" class="edge"><title>[root] aws_instance.web (expand)&#45;&gt;[root] provider[&quot;registry.terraform.io/hashicorp/aws&quot;]</title>
<path fill="none" stroke="black" d="M326.301,-71.6966C326.301,-63.9827 326.301,-54.7125 326.301,-46.1124"/>
<polygon fill="black" stroke="black" points="329.801,-46.1043 326.301,-36.1043 322.801,-46.1044 329.801,-46.1043"/>
</g>
<!-- [root] azurerm_resource_group.example (expand) -->
<g id="node2" class="node"><title>[root] azurerm_resource_group.example (expand)</title>
<polygon fill="none" stroke="black" points="1032.8,-108 771.801,-108 771.801,-72 1032.8,-72 1032.8,-108"/>
<text text-anchor="middle" x="902.301" y="-86.3" font-family="Times,serif" font-size="14.00">azurerm_resource_group.example</text>
</g>
<!-- [root] provider[&quot;registry.terraform.io/hashicorp/azurerm&quot;] -->
<g id="node5" class="node"><title>[root] provider[&quot;registry.terraform.io/hashicorp/azurerm&quot;]</title>
<polygon fill="none" stroke="black" points="1075.3,-36 719.373,-18 1075.3,-3.55271e-15 1431.23,-18 1075.3,-36"/>
<text text-anchor="middle" x="1075.3" y="-14.3" font-family="Times,serif" font-size="14.00">provider[&quot;registry.terraform.io/hashicorp/azurerm&quot;]</text>
</g>
<!-- [root] azurerm_resource_group.example (expand)&#45;&gt;[root] provider[&quot;registry.terraform.io/hashicorp/azurerm&quot;] -->
<g id="edge2" class="edge"><title>[root] azurerm_resource_group.example (expand)&#45;&gt;[root] provider[&quot;registry.terraform.io/hashicorp/azurerm&quot;]</title>
<path fill="none" stroke="black" d="M944.621,-71.8761C970.012,-61.6023 1002.35,-48.5194 1028.5,-37.9378"/>
<polygon fill="black" stroke="black" points="1029.87,-41.1577 1037.83,-34.1623 1027.25,-34.6688 1029.87,-41.1577"/>
</g>
<!-- [root] azurerm_resource_group.green (expand) -->
<g id="node3" class="node"><title>[root] azurerm_resource_group.green (expand)</title>
<polygon fill="none" stroke="black" points="1293.3,-108 1051.3,-108 1051.3,-72 1293.3,-72 1293.3,-108"/>
<text text-anchor="middle" x="1172.3" y="-86.3" font-family="Times,serif" font-size="14.00">azurerm_resource_group.green</text>
</g>
<!-- [root] azurerm_resource_group.green (expand)&#45;&gt;[root] provider[&quot;registry.terraform.io/hashicorp/azurerm&quot;] -->
<g id="edge3" class="edge"><title>[root] azurerm_resource_group.green (expand)&#45;&gt;[root] provider[&quot;registry.terraform.io/hashicorp/azurerm&quot;]</title>
<path fill="none" stroke="black" d="M1148.32,-71.6966C1135.41,-62.3759 1119.34,-50.783 1105.57,-40.8456"/>
<polygon fill="black" stroke="black" points="1107.5,-37.9211 1097.34,-34.9073 1103.4,-43.5974 1107.5,-37.9211"/>
</g>
<!-- [root] provider[&quot;registry.terraform.io/hashicorp/aws&quot;] (close) -->
<g id="node6" class="node"><title>[root] provider[&quot;registry.terraform.io/hashicorp/aws&quot;] (close)</title>
<ellipse fill="none" stroke="black" cx="326.301" cy="-162" rx="293.248" ry="18"/>
<text text-anchor="middle" x="326.301" y="-158.3" font-family="Times,serif" font-size="14.00">[root] provider[&quot;registry.terraform.io/hashicorp/aws&quot;] (close)</text>
</g>
<!-- [root] provider[&quot;registry.terraform.io/hashicorp/aws&quot;] (close)&#45;&gt;[root] aws_instance.web (expand) -->
<g id="edge4" class="edge"><title>[root] provider[&quot;registry.terraform.io/hashicorp/aws&quot;] (close)&#45;&gt;[root] aws_instance.web (expand)</title>
<path fill="none" stroke="black" d="M326.301,-143.697C326.301,-135.983 326.301,-126.712 326.301,-118.112"/>
<polygon fill="black" stroke="black" points="329.801,-118.104 326.301,-108.104 322.801,-118.104 329.801,-118.104"/>
</g>
<!-- [root] provider[&quot;registry.terraform.io/hashicorp/azurerm&quot;] (close) -->
<g id="node7" class="node"><title>[root] provider[&quot;registry.terraform.io/hashicorp/azurerm&quot;] (close)</title>
<ellipse fill="none" stroke="black" cx="951.301" cy="-162" rx="313.844" ry="18"/>
<text text-anchor="middle" x="951.301" y="-158.3" font-family="Times,serif" font-size="14.00">[root] provider[&quot;registry.terraform.io/hashicorp/azurerm&quot;] (close)</text>
</g>
<!-- [root] provider[&quot;registry.terraform.io/hashicorp/azurerm&quot;] (close)&#45;&gt;[root] azurerm_resource_group.example (expand) -->
<g id="edge5" class="edge"><title>[root] provider[&quot;registry.terraform.io/hashicorp/azurerm&quot;] (close)&#45;&gt;[root] azurerm_resource_group.example (expand)</title>
<path fill="none" stroke="black" d="M939.188,-143.697C933.433,-135.474 926.439,-125.483 920.095,-116.421"/>
<polygon fill="black" stroke="black" points="922.876,-114.29 914.274,-108.104 917.141,-118.304 922.876,-114.29"/>
</g>
<!-- [root] provider[&quot;registry.terraform.io/hashicorp/azurerm&quot;] (close)&#45;&gt;[root] azurerm_resource_group.green (expand) -->
<g id="edge6" class="edge"><title>[root] provider[&quot;registry.terraform.io/hashicorp/azurerm&quot;] (close)&#45;&gt;[root] azurerm_resource_group.green (expand)</title>
<path fill="none" stroke="black" d="M1004.24,-144.233C1035.62,-134.294 1075.59,-121.632 1108.68,-111.152"/>
<polygon fill="black" stroke="black" points="1109.79,-114.472 1118.26,-108.116 1107.67,-107.799 1109.79,-114.472"/>
</g>
<!-- [root] root -->
<g id="node8" class="node"><title>[root] root</title>
<ellipse fill="none" stroke="black" cx="638.301" cy="-234" rx="58.4896" ry="18"/>
<text text-anchor="middle" x="638.301" y="-230.3" font-family="Times,serif" font-size="14.00">[root] root</text>
</g>
<!-- [root] root&#45;&gt;[root] provider[&quot;registry.terraform.io/hashicorp/aws&quot;] (close) -->
<g id="edge7" class="edge"><title>[root] root&#45;&gt;[root] provider[&quot;registry.terraform.io/hashicorp/aws&quot;] (close)</title>
<path fill="none" stroke="black" d="M592.599,-222.746C544.678,-211.995 468.327,-194.865 409.641,-181.698"/>
<polygon fill="black" stroke="black" points="410.166,-178.229 399.642,-179.455 408.634,-185.059 410.166,-178.229"/>
</g>
<!-- [root] root&#45;&gt;[root] provider[&quot;registry.terraform.io/hashicorp/azurerm&quot;] (close) -->
<g id="edge8" class="edge"><title>[root] root&#45;&gt;[root] provider[&quot;registry.terraform.io/hashicorp/azurerm&quot;] (close)</title>
<path fill="none" stroke="black" d="M684.149,-222.746C732.143,-212.013 808.564,-194.922 867.398,-181.764"/>
<polygon fill="black" stroke="black" points="868.429,-185.12 877.424,-179.522 866.901,-178.289 868.429,-185.12"/>
</g>
</g>
</svg>
